<svg width="64" height="64" viewBox="0 0 64 64" fill="none" xmlns="http://www.w3.org/2000/svg">
<path d="M26.5414 3.44587L3.48652 27.0379C-4.30313 36.6845 8.78773 35.5621 14.3996 38.3405C16.4126 40.3982 6.68372 41.917 8.69678 43.9764C10.7098 46.0341 20.8695 47.9407 22.886 49.9984C24.899 52.0561 18.7655 54.2391 20.7785 56.2967C22.7916 58.3544 27.4475 56.4048 28.3193 61.1552C28.9406 64.5497 36.7096 62.6139 40.5092 59.8337C42.5223 57.7743 36.6582 57.9683 38.6712 55.9106C43.6773 50.7913 48.3383 54.0503 50.0511 48.9207C50.8971 46.3859 42.6819 45.013 44.6984 42.9553C50.4904 39.5727 70.5094 37.3709 61.0105 27.872L37.1129 3.44587C34.1903 0.639954 29.313 0.609063 26.5414 3.44587ZM53.0235 48.9207C53.0235 50.0911 61.6472 50.8582 61.6472 48.6444C60.4184 45.0885 54.0429 45.3287 53.0235 48.9207ZM14.1765 55.14C16.2187 56.906 19.373 54.7007 20.3186 52.2363C18.3399 49.6071 10.9329 52.3307 14.1765 55.14ZM51.9423 51.325C49.3097 53.6864 52.2375 56.0822 54.8323 54.5565C55.4106 53.9696 54.8168 51.9119 51.9423 51.325Z" fill="black"/>
<path d="M21.0239 39.6174C21.64 40.0001 30.9588 41.8931 33.2361 42.2706C34.0255 42.4371 33.4661 43.2505 32.378 43.7997C29.9239 44.4519 18.0206 39.6174 21.0239 39.6174Z" fill="white"/>
<path d="M35.7194 5.10027L44.8408 14.3641C45.7057 15.2479 45.6937 16.9606 45.2098 17.4532L40.6808 13.8304L39.7901 19.1951L36.006 17.1975L29.9462 21.0262L27.94 12.9551L24.6845 18.5876H19.7076C17.6791 18.5876 17.4406 16.0133 19.2837 14.1702C22.5032 10.6949 26.1981 7.15279 28.206 5.10027C30.2242 3.03744 33.7407 3.09579 35.7194 5.10027Z" fill="white"/>
</svg>
