<svg width="64" height="68" viewBox="0 0 64 68" fill="none" xmlns="http://www.w3.org/2000/svg">
<g filter="url(#filter0_d_43_87)">
<path d="M23.5997 7.68694L3.95417 27.3324C-0.695791 31.9824 -0.695791 39.5215 3.95417 44.1715L23.5997 63.817C28.2496 68.4669 35.7887 68.4669 40.4387 63.817L60.0842 44.1715C64.7342 39.5215 64.7342 31.9824 60.0842 27.3325L40.4387 7.68694C35.7887 3.03698 28.2496 3.03697 23.5997 7.68694Z" fill="url(#paint0_linear_43_87)"/>
<path d="M23.5997 7.68694L3.95417 27.3324C-0.695791 31.9824 -0.695791 39.5215 3.95417 44.1715L23.5997 63.817C28.2496 68.4669 35.7887 68.4669 40.4387 63.817L60.0842 44.1715C64.7342 39.5215 64.7342 31.9824 60.0842 27.3325L40.4387 7.68694C35.7887 3.03698 28.2496 3.03697 23.5997 7.68694Z" fill="url(#paint1_linear_43_87)" fill-opacity="0.8"/>
</g>
<g style="mix-blend-mode:overlay">
<path d="M31.2558 31.2868C31.2558 29.3688 29.7009 27.814 27.7829 27.814C25.8649 27.814 24.3101 29.3688 24.3101 31.2868C24.3101 33.2048 25.8649 34.7597 27.7829 34.7597C29.7009 34.7597 31.2558 33.2048 31.2558 31.2868Z" fill="#F0F0F2"/>
<path d="M31.2558 31.2868C31.2558 29.3688 29.7009 27.814 27.7829 27.814C25.8649 27.814 24.3101 29.3688 24.3101 31.2868C24.3101 33.2048 25.8649 34.7597 27.7829 34.7597C29.7009 34.7597 31.2558 33.2048 31.2558 31.2868Z" stroke="#F0F0F2" stroke-width="4"/>
</g>
<g style="mix-blend-mode:overlay">
<path d="M40.186 40.217C40.186 38.299 38.6311 36.7441 36.7131 36.7441C34.7951 36.7441 33.2402 38.299 33.2402 40.217C33.2402 42.135 34.7951 43.6899 36.7131 43.6899C38.6311 43.6899 40.186 42.135 40.186 40.217Z" fill="#F0F0F2"/>
<path d="M40.186 40.217C40.186 38.299 38.6311 36.7441 36.7131 36.7441C34.7951 36.7441 33.2402 38.299 33.2402 40.217C33.2402 42.135 34.7951 43.6899 36.7131 43.6899C38.6311 43.6899 40.186 42.135 40.186 40.217Z" stroke="#F0F0F2" stroke-width="4"/>
</g>
<g style="mix-blend-mode:overlay">
<path d="M31.2558 40.217C31.2558 38.299 29.7009 36.7441 27.7829 36.7441C25.8649 36.7441 24.3101 38.299 24.3101 40.217C24.3101 42.135 25.8649 43.6899 27.7829 43.6899C29.7009 43.6899 31.2558 42.135 31.2558 40.217Z" fill="#F0F0F2"/>
<path d="M31.2558 40.217C31.2558 38.299 29.7009 36.7441 27.7829 36.7441C25.8649 36.7441 24.3101 38.299 24.3101 40.217C24.3101 42.135 25.8649 43.6899 27.7829 43.6899C29.7009 43.6899 31.2558 42.135 31.2558 40.217Z" stroke="#F0F0F2" stroke-width="4"/>
</g>
<g style="mix-blend-mode:overlay">
<path d="M40.186 31.2868C40.186 29.3688 38.6311 27.814 36.7131 27.814C34.7951 27.814 33.2402 29.3688 33.2402 31.2868C33.2402 33.2048 34.7951 34.7597 36.7131 34.7597C38.6311 34.7597 40.186 33.2048 40.186 31.2868Z" fill="#F0F0F2"/>
<path d="M40.186 31.2868C40.186 29.3688 38.6311 27.814 36.7131 27.814C34.7951 27.814 33.2402 29.3688 33.2402 31.2868C33.2402 33.2048 34.7951 34.7597 36.7131 34.7597C38.6311 34.7597 40.186 33.2048 40.186 31.2868Z" stroke="#F0F0F2" stroke-width="4"/>
</g>
<g style="mix-blend-mode:overlay">
<path fill-rule="evenodd" clip-rule="evenodd" d="M41.574 20.5166C42.275 18.9685 43.8335 17.8915 45.6435 17.8915C48.1095 17.8915 50.1086 19.8906 50.1086 22.3566C50.1086 24.1666 49.0316 25.7251 47.4835 26.4262C49.1486 29.1406 50.1086 32.3341 50.1086 35.7519V36.2481C50.1086 46.1121 42.1122 54.1085 32.2482 54.1085C28.7492 54.1085 25.4853 53.1024 22.7299 51.3637C21.9602 52.7072 20.5122 53.6124 18.8528 53.6124C16.3868 53.6124 14.3877 51.6133 14.3877 49.1473C14.3877 47.428 15.3594 45.9357 16.7836 45.1896C15.2599 42.56 14.3877 39.5059 14.3877 36.2481V35.7519C14.3877 25.8879 22.3841 17.8915 32.2482 17.8915C35.666 17.8915 38.8595 18.8515 41.574 20.5166ZM41.1866 22.6295C38.6407 20.8919 35.5631 19.876 32.2482 19.876C23.4801 19.876 16.3722 26.9839 16.3722 35.7519V36.2481C16.3722 39.3472 17.2602 42.2388 18.7956 44.6825C18.8146 44.6823 18.8337 44.6822 18.8528 44.6822C21.3188 44.6822 23.3179 46.6813 23.3179 49.1473C23.3179 49.2228 23.316 49.2978 23.3124 49.3723C25.8578 51.1088 28.9344 52.124 32.2482 52.124C41.0162 52.124 48.1241 45.0161 48.1241 36.2481V35.7519C48.1241 32.437 47.1082 29.3594 45.3706 26.8135C43.122 26.6779 41.3222 24.8781 41.1866 22.6295Z" fill="#F0F0F2"/>
</g>
<defs>
<filter id="filter0_d_43_87" x="0.466797" y="0.199463" width="63.105" height="67.105" filterUnits="userSpaceOnUse" color-interpolation-filters="sRGB">
<feFlood flood-opacity="0" result="BackgroundImageFix"/>
<feColorMatrix in="SourceAlpha" type="matrix" values="0 0 0 0 0 0 0 0 0 0 0 0 0 0 0 0 0 0 127 0" result="hardAlpha"/>
<feOffset dy="-4"/>
<feComposite in2="hardAlpha" operator="out"/>
<feColorMatrix type="matrix" values="0 0 0 0 0.0666667 0 0 0 0 0.0666667 0 0 0 0 0.0666667 0 0 0 0.4 0"/>
<feBlend mode="normal" in2="BackgroundImageFix" result="effect1_dropShadow_43_87"/>
<feBlend mode="normal" in="SourceGraphic" in2="effect1_dropShadow_43_87" result="shape"/>
</filter>
<linearGradient id="paint0_linear_43_87" x1="32.0192" y1="3.75194" x2="32.0193" y2="66.5118" gradientUnits="userSpaceOnUse">
<stop stop-color="#DB2860"/>
<stop offset="1" stop-color="#FEC049"/>
</linearGradient>
<linearGradient id="paint1_linear_43_87" x1="13.7769" y1="17.5097" x2="50.2614" y2="53.9942" gradientUnits="userSpaceOnUse">
<stop stop-color="#F0F0F2" stop-opacity="0"/>
<stop offset="1" stop-color="#F0F0F2" stop-opacity="0.2"/>
</linearGradient>
</defs>
</svg>
