<svg width="64" height="64" viewBox="0 0 64 64" fill="none" xmlns="http://www.w3.org/2000/svg">
<g clip-path="url(#clip0_58_122)">
<path d="M31.9999 63.605C49.4549 63.605 63.6049 49.455 63.6049 32.0001C63.6049 14.5451 49.4549 0.395142 31.9999 0.395142C14.545 0.395142 0.39502 14.5451 0.39502 32.0001C0.39502 49.455 14.545 63.605 31.9999 63.605Z" fill="url(#paint0_linear_58_122)"/>
<path d="M31.9999 61.9504C49.4549 61.9504 63.6049 48.1708 63.6049 31.1728C63.6049 14.1747 49.4549 0.395142 31.9999 0.395142C14.545 0.395142 0.39502 14.1747 0.39502 31.1728C0.39502 48.1708 14.545 61.9504 31.9999 61.9504Z" fill="url(#paint1_linear_58_122)"/>
<path d="M30.1546 7.21619C28.3567 19.3281 23.8144 21.3149 14.9062 32.9866L17.4583 39.0266L39.097 60.6654C45.7202 59.1557 51.6808 55.5522 56.0952 50.389C60.5097 45.2257 63.1431 38.7775 63.605 32.0001L39.3905 7.78557L30.1546 7.21619Z" fill="url(#paint2_linear_58_122)"/>
<path d="M24.022 20.6862C21.9754 13.8918 10.4098 15.5405 8.47656 15.393C10.6464 14.3159 12.6073 13.4281 17.0805 10.1876C25.6979 3.94516 34.8213 5.30655 39.3901 7.78558C26.8997 8.2604 29.2792 15.0652 31.119 18.6507C28.7794 19.3303 25.0862 20.3561 24.022 20.6862Z" fill="url(#paint3_linear_58_122)"/>
<path d="M54.8535 11.3368C50.3557 17.2778 42.8776 25.3046 34.6933 26.362C26.5089 27.4193 18.7065 26.248 16.8992 32.3433C15.2347 37.9565 21.0886 43.1973 27.1601 41.9342C33.6464 40.5848 32.2456 33.2331 28.6979 28.2268C31.3927 28.0722 30.8914 28.1122 35.4613 27.8819C42.2729 33.6881 44.5306 35.3434 56.4309 43.8146C47.2603 42.8541 43.9227 41.9722 37.3452 38.0379C39.0491 42.3149 42.691 52.0219 43.4799 59.5537C39.6863 54.1025 38.2481 52.0992 32.3689 48.1666C24.838 43.1291 18.7389 42.9586 15.2088 35.5368C11.6864 28.1311 16.3488 22.7965 24.6919 20.4863C36.6148 17.1847 46.888 14.0546 54.8535 11.3368Z" fill="url(#paint4_linear_58_122)"/>
<path d="M28.6978 28.2268C31.3926 28.0723 30.8913 28.1123 35.4611 27.882C42.2727 33.6881 44.5305 35.3435 56.4308 43.8146C44.4694 42.959 35.4191 39.4312 28.6978 28.2268Z" fill="url(#paint5_linear_58_122)"/>
<path d="M54.8535 11.3368C50.3557 17.2778 42.8776 25.3046 34.6933 26.362C26.5089 27.4193 18.7065 26.248 16.8992 32.3433C15.2347 37.9565 21.0886 43.1973 27.1601 41.9342C33.6464 40.5848 32.2456 33.2331 28.6979 28.2268C31.3927 28.0722 30.8914 28.1122 35.4613 27.8819C42.2729 33.6881 44.5306 35.3434 56.4309 43.8146C47.2603 42.8541 43.9227 41.9722 37.3452 38.0379C39.0491 42.3149 42.691 52.0219 43.4799 59.5537C39.6863 54.1025 38.2481 52.0992 32.3689 48.1666C24.838 43.1291 18.7389 42.9586 15.2088 35.5368C11.6864 28.1311 16.3488 22.7965 24.6919 20.4863C36.6148 17.1847 46.888 14.0546 54.8535 11.3368Z" fill="url(#paint6_linear_58_122)"/>
<path d="M28.6978 28.2268C31.3926 28.0723 30.8913 28.1123 35.4611 27.882C42.2727 33.6881 44.5305 35.3435 56.4308 43.8146C44.4694 42.959 35.4191 39.4312 28.6978 28.2268Z" fill="url(#paint7_linear_58_122)"/>
<path d="M8.47656 15.393C10.6464 14.3159 12.6073 13.4281 17.0805 10.1876C25.6979 3.94516 34.8213 5.30655 39.3901 7.78558C26.8997 8.2604 28.5091 10.7491 28.463 12.7001C20.1643 10.9508 17.7413 13.3309 8.47656 15.393Z" fill="url(#paint8_linear_58_122)"/>
<path d="M39.3904 7.78555C26.9 8.26037 29.2795 15.0652 31.1192 18.6506C29.6616 19.074 28.0819 19.5563 26.1334 20.072C18.2716 6.06356 32.9737 4.24113 39.3904 7.78555Z" fill="url(#paint9_linear_58_122)"/>
<path d="M17.4581 39.0267C11.346 31.1565 12.4745 23.9429 24.4429 20.1949C36.2538 16.4963 46.8882 14.0546 54.8536 11.3368C33.3578 19.5272 6.44087 24.9999 17.4581 39.0267Z" fill="url(#paint10_linear_58_122)"/>
</g>
<defs>
<linearGradient id="paint0_linear_58_122" x1="9.64571" y1="9.65819" x2="55.1231" y2="55.1356" gradientUnits="userSpaceOnUse">
<stop stop-color="#5599FF"/>
<stop offset="1" stop-color="#0066FF"/>
</linearGradient>
<linearGradient id="paint1_linear_58_122" x1="60.5068" y1="44.1504" x2="19.6826" y2="2.22883" gradientUnits="userSpaceOnUse">
<stop stop-color="#2A7FFF"/>
<stop offset="1" stop-color="#00CCFF"/>
</linearGradient>
<linearGradient id="paint2_linear_58_122" x1="16.7315" y1="17.8154" x2="51.094" y2="52.1778" gradientUnits="userSpaceOnUse">
<stop stop-color="#0055D4"/>
<stop offset="1" stop-color="#0066FF" stop-opacity="0"/>
</linearGradient>
<linearGradient id="paint3_linear_58_122" x1="13.0376" y1="8.02384" x2="22.955" y2="18.1654" gradientUnits="userSpaceOnUse">
<stop stop-color="#E6E6E6"/>
<stop offset="1" stop-color="#B3B3B3"/>
</linearGradient>
<linearGradient id="paint4_linear_58_122" x1="54.2498" y1="35.943" x2="21.1892" y2="26.5651" gradientUnits="userSpaceOnUse">
<stop stop-color="#00CCFF"/>
<stop offset="1" stop-color="#2A7FFF"/>
</linearGradient>
<linearGradient id="paint5_linear_58_122" x1="32.4641" y1="28.966" x2="51.0331" y2="41.3479" gradientUnits="userSpaceOnUse">
<stop stop-color="#2A7FFF"/>
<stop offset="1" stop-color="#00CCFF"/>
</linearGradient>
<linearGradient id="paint6_linear_58_122" x1="54.8535" y1="11.3368" x2="31.6483" y2="47.7068" gradientUnits="userSpaceOnUse">
<stop stop-color="white"/>
<stop offset="1" stop-color="#B3B3B3"/>
</linearGradient>
<linearGradient id="paint7_linear_58_122" x1="31.2321" y1="28.0899" x2="31.0589" y2="43.4191" gradientUnits="userSpaceOnUse">
<stop stop-color="#B3B3B3"/>
<stop offset="1" stop-color="white"/>
</linearGradient>
<linearGradient id="paint8_linear_58_122" x1="18.7119" y1="12.6448" x2="38.7707" y2="7.65632" gradientUnits="userSpaceOnUse">
<stop stop-color="white"/>
<stop offset="1" stop-color="#B3B3B3"/>
</linearGradient>
<linearGradient id="paint9_linear_58_122" x1="27.9434" y1="6.31617" x2="26.2874" y2="20.0146" gradientUnits="userSpaceOnUse">
<stop stop-color="#CCCCCC"/>
<stop offset="1" stop-color="#B3B3B3"/>
</linearGradient>
<linearGradient id="paint10_linear_58_122" x1="17.6663" y1="36.3869" x2="55.4993" y2="14.5568" gradientUnits="userSpaceOnUse">
<stop stop-color="#E6E6E6"/>
<stop offset="1" stop-color="white"/>
</linearGradient>
<clipPath id="clip0_58_122">
<rect width="64" height="64" fill="white"/>
</clipPath>
</defs>
</svg>
