<svg width="64" height="64" viewBox="0 0 64 64" fill="none" xmlns="http://www.w3.org/2000/svg">
<rect width="64" height="64" rx="6" fill="#171921"/>
<g clip-path="url(#clip0_43_183)">
<path d="M48.6386 38.0561C46.2733 39.2615 42.9528 39.7618 42.9528 39.7618L32.2634 33.5074L21.574 39.7618C21.574 39.7618 18.2534 39.2615 15.8881 38.0561C12.2946 36.1229 8.38278 31.3013 7.24561 29.4136C7.24561 29.4136 10.225 37.7377 12.2492 43.5145C16.6159 50.3148 24.3941 53.84 32.2634 53.8628C40.1326 53.84 47.9109 50.3148 52.2776 43.5145C54.3018 37.7377 57.2811 29.4136 57.2811 29.4136C56.144 31.3013 52.2321 36.1229 48.6386 38.0561Z" fill="#FFE953"/>
<path d="M56.1439 20.6574C55.1659 19.6112 53.7558 18.6787 52.0501 17.8144C50.9811 15.7675 49.2072 12.1286 49.2072 12.1286C49.2072 12.1286 47.4332 13.7889 45.3408 15.3581C42.657 14.6986 39.6322 14.2892 36.4254 14.0618C34.333 12.1513 32.2633 10.1499 32.2633 10.1499C32.2633 10.1499 30.1937 12.1513 28.1013 14.0618C24.8944 14.2892 21.8696 14.6986 19.1858 15.3581C17.0934 13.7889 15.3195 12.1286 15.3195 12.1286C15.3195 12.1286 13.5455 15.7675 12.4765 17.8144C10.7708 18.6787 9.36067 19.6112 8.38271 20.6574C6.83615 19.9296 4.97119 19.0653 4.97119 19.0653C7.0181 23.9552 8.49642 28.8677 12.2491 31.8016C15.2512 26.184 23.7345 23.614 32.2633 23.7732C40.7921 23.614 49.2754 26.184 52.2775 31.8016C56.0302 28.8677 57.5085 23.9552 59.5554 19.0653C59.5554 19.0653 57.6905 19.9296 56.1439 20.6574Z" fill="#F3D400"/>
</g>
<defs>
<clipPath id="clip0_43_183">
<rect width="56" height="44" fill="white" transform="translate(4 10)"/>
</clipPath>
</defs>
</svg>
