<svg width="64" height="64" viewBox="0 0 64 64" fill="none" xmlns="http://www.w3.org/2000/svg">
<g clip-path="url(#clip0_43_105)">
<path fill-rule="evenodd" clip-rule="evenodd" d="M32 0C38.329 0 44.5159 1.87677 49.7782 5.39297C55.0406 8.90918 59.1421 13.9069 61.5641 19.7541C63.9861 25.6014 64.6199 32.0355 63.3851 38.2429C62.1504 44.4503 59.1027 50.1521 54.6274 54.6274C50.1521 59.1027 44.4503 62.1504 38.2429 63.3851C32.0355 64.6199 25.6014 63.9861 19.7541 61.5641C13.9069 59.1421 8.90918 55.0406 5.39297 49.7782C1.87677 44.5159 0 38.329 0 32C0 23.5131 3.37142 15.3737 9.37258 9.37258C15.3737 3.37142 23.5131 0 32 0Z" fill="#00078F"/>
<path d="M58.9971 42.2285C54.2342 41.1314 49.5685 39.5057 46.3885 37.6571C37.6714 32.5714 34.6542 21.4714 22.36 25.6C32.0742 36.9285 15.7885 40.4571 4.74854 41.5314C6.69842 47.1283 10.3244 51.9892 15.1336 55.4531C19.9429 58.9171 25.7021 60.8163 31.6285 60.8924C37.5549 60.9686 43.361 59.2181 48.2577 55.8788C53.1543 52.5396 56.904 47.7735 58.9971 42.2285Z" fill="#FDFDFF"/>
</g>
<defs>
<clipPath id="clip0_43_105">
<rect width="64" height="64" fill="white"/>
</clipPath>
</defs>
</svg>
