<svg width="64" height="64" viewBox="0 0 64 64" fill="none" xmlns="http://www.w3.org/2000/svg">
<path fill-rule="evenodd" clip-rule="evenodd" d="M58.8166 10.666L48.1506 21.3334H26.8173V29.3329H37.4832V40.0002H26.8173V53.3327L16.1499 64H26.9509C27.7596 64 28.4759 63.4793 28.7258 62.7102L30.6565 56.7681C30.8411 56.1999 31.2871 55.7552 31.8553 55.5706L33.3395 55.0883C33.9078 54.9036 34.5304 55.0017 35.0138 55.3529L40.067 59.0253C40.7213 59.5006 41.608 59.5006 42.2623 59.0253L46.7919 55.7332C47.4462 55.2579 47.7198 54.416 47.4698 53.6469L45.5392 47.7048C45.3545 47.1365 45.454 46.5139 45.8052 46.0305L46.723 44.7682C47.0742 44.2848 47.6344 43.9979 48.2319 43.9979L54.4799 43.9992C55.2887 43.9993 56.0049 43.4772 56.2548 42.708L57.9856 37.3833C58.2355 36.6142 57.9619 35.7709 57.3076 35.2956L52.253 31.6231C51.7696 31.2719 51.4841 30.7117 51.4841 30.1142V28.5529C51.4841 27.9554 51.7696 27.3937 52.253 27.0426L58.0476 22.8327C58.531 22.4815 58.8166 21.9199 58.8166 21.3223V10.666Z" fill="#418FDE"/>
<path fill-rule="evenodd" clip-rule="evenodd" d="M48.1501 0L37.4834 10.6667H48.1501V21.3333L58.8167 10.6667V0H48.1501ZM16.1501 42.6667L5.4834 53.3333V64H16.1501L26.8167 53.3333H16.1501V42.6667Z" fill="#FF585D"/>
<path fill-rule="evenodd" clip-rule="evenodd" d="M16.1501 0L5.4834 10.6667V53.3333L16.1501 42.6667V10.6667H37.4834L48.1501 0H16.1501Z" fill="#CB333B"/>
<path fill-rule="evenodd" clip-rule="evenodd" d="M16.1499 53.3327H26.8173V40.0002H37.4832V29.3329H26.8173V21.3334H48.1506V10.666H16.1499V53.3327Z" fill="#FEFEFE"/>
</svg>
