<svg width="64" height="64" viewBox="0 0 64 64" fill="none" xmlns="http://www.w3.org/2000/svg">
<path d="M42.3323 54.2086C33.6393 54.2086 26.5928 47.5616 26.5928 39.3631C26.5928 31.1656 33.6393 24.5186 42.3323 24.5186C51.0258 24.5186 58.0723 31.1656 58.0723 39.3631C58.0723 47.5616 51.0258 54.2086 42.3323 54.2086Z" fill="white"/>
<path d="M33.2702 37.6905C33.3852 35.608 34.4077 33.77 35.9467 32.4685C37.4587 31.189 39.4902 30.4075 41.7087 30.4075C43.9272 30.4075 45.9587 31.189 47.4707 32.4685C49.0097 33.77 50.0307 35.608 50.1482 37.6895C50.2657 39.833 49.4052 41.8245 47.8952 43.2975C46.3557 44.7985 44.1622 45.7415 41.7087 45.7415C39.2552 45.7415 37.0602 44.7985 35.5207 43.2975C34.0107 41.8235 33.1512 39.833 33.2702 37.6905Z" fill="#265787"/>
<path d="M19.8286 41.9075C19.8426 42.721 20.1036 44.306 20.4936 45.5465C21.3136 48.1665 22.7056 50.5905 24.6431 52.7285C26.6696 54.9553 29.1422 56.7305 31.9001 57.9385C34.9026 59.2626 38.1506 59.9385 41.4321 59.922C44.7146 59.926 47.9612 59.2395 50.9611 57.907C53.7856 56.643 56.2291 54.874 58.2156 52.6735C60.1491 50.5295 61.5391 48.0985 62.3606 45.4775C62.7694 44.172 63.0306 42.8247 63.1391 41.461C63.2426 40.133 63.1986 38.801 63.0106 37.472C62.6454 34.9006 61.7442 32.4346 60.3656 30.2335C59.0865 28.187 57.4526 26.3851 55.5406 24.9125L55.5436 24.91L36.0176 9.91502L35.9676 9.87502C34.6841 8.89252 32.5296 8.89502 31.1216 9.88152C29.6956 10.879 29.5351 12.526 30.8016 13.5675L30.7981 13.5715L38.9411 20.1965L14.1156 20.2215H14.0806C12.0296 20.2225 10.0591 21.5715 9.66607 23.271C9.26757 25.0055 10.6621 26.4425 12.7931 26.452V26.4575L25.3746 26.434L2.92007 43.6685L2.83407 43.7335C0.717568 45.3545 0.0315679 48.0525 1.36457 49.7595C2.72007 51.4965 5.59807 51.498 7.73957 49.7675L19.9931 39.7405C19.9931 39.7405 19.8161 41.0955 19.8286 41.9075ZM51.3166 46.4385C48.7926 49.0135 45.2601 50.4715 41.4316 50.4785C37.6036 50.487 34.0686 49.04 31.5431 46.4705C30.3495 45.2729 29.4285 43.8317 28.8431 42.2455C28.2939 40.7366 28.0821 39.1256 28.2226 37.526C28.3574 35.9657 28.8191 34.4512 29.5776 33.081C30.3412 31.709 31.361 30.4963 32.5816 29.5085C35.0351 27.5075 38.1581 26.4255 41.4291 26.4215C44.7001 26.4175 47.8231 27.4905 50.2766 29.4835C51.4969 30.4666 52.5168 31.6752 53.2806 33.0435C54.038 34.4133 54.4996 35.9267 54.6356 37.486C54.7757 39.0855 54.5639 40.6962 54.0151 42.205C53.4293 43.7933 52.509 45.237 51.3166 46.4385Z" fill="#E87D0D"/>
</svg>
