<svg width="64" height="64" viewBox="0 0 64 64" fill="none" xmlns="http://www.w3.org/2000/svg">
<path d="M48.0984 13.0127L48.0334 15.3615L30.7298 16.7368L17.6899 25.2897L14.6001 39.5872C14.6001 39.5872 16.7006 48.8283 18.4929 50.7014C20.2853 52.5746 23.9918 57.947 28.5654 58.8836C33.139 59.8201 37.0327 60.8786 40.741 59.9421C44.4493 59.0055 46.9244 57.883 46.9244 57.883L48.4693 57.1335C48.4693 57.1335 48.0891 57.47 47.4789 57.9023C54.8584 53.1228 59.7463 44.7619 59.7463 35.2489C59.7463 26.0049 55.1306 17.8519 48.0984 13.0127Z" fill="url(#paint0_radial_67_382)"/>
<path d="M44.1763 4.42156C44.1763 4.42156 44.8284 2.79641 45.4371 2.75249C46.0458 2.70857 46.3936 3.10388 46.7849 3.54311C47.1762 3.98233 47.9588 4.64117 47.9588 4.64117C47.9588 4.64117 51.524 3.41134 55.524 5.60747C59.524 7.80361 60.0892 8.46245 60.8718 9.99975C61.6544 11.537 61.3065 15.4022 61.3065 15.4022L61.7739 17.7082L60.7848 19.0039L53.8284 17.818L45.5241 11.6249L44.1763 4.42156Z" fill="url(#paint1_linear_67_382)"/>
<path d="M48.1027 13.0137L46.7204 14.9188L30.7369 16.7314L17.6919 25.2858L14.6069 39.5832C14.6069 39.5832 16.7052 48.8262 18.4975 50.6993C20.2899 52.5725 23.9937 57.9473 28.5673 58.8838C33.1409 59.8204 37.0343 60.8747 40.7426 59.9381C44.4509 59.0015 46.9309 57.885 46.9309 57.885L48.478 57.1359C48.478 57.1359 48.0904 57.4712 47.4802 57.9035C48.3159 57.3623 49.1195 56.7668 49.8878 56.1372C45.6055 58.8447 40.3828 60.2057 37.4196 60.2063C26.4094 60.2063 17.4814 51.1962 17.4814 40.0734C17.4814 36.1467 18.4199 32.3112 20.3284 29.1884C21.6725 29.7715 23.0876 30.7627 23.981 32.2125C24.1247 32.4219 24.2236 32.6619 24.3838 32.8599C25.1724 33.8348 26.0242 34.087 26.8829 34.1269C28.7178 34.1809 29.5841 32.797 29.6658 30.9363C29.6682 30.7904 29.6791 30.8634 29.669 30.7356C29.6109 29.4956 27.802 24.914 24.7957 24.3887C25.3219 23.9797 25.8702 23.5974 26.4435 23.2512C28.3798 22.0819 32.4937 20.755 38.1977 21.6236C41.0904 22.0641 43.4604 22.6939 47.114 23.8708C51.3544 25.2368 53.7108 27.1446 56.9733 27.5238C57.5222 27.5876 58.0764 27.5622 58.6119 27.4591C56.833 21.5109 53.0742 16.4348 48.1027 13.0137Z" fill="black" fill-opacity="0.156863"/>
<path d="M31.4435 1.28772C14.7849 1.28772 1.28027 14.9306 1.28027 31.7596C1.28027 48.5886 14.8469 62.6954 31.4435 62.6973C42.2711 63.0224 52.3154 57.929 55.6262 49.6311C54.4046 50.2006 53.0608 51.5723 52.0477 52.4702C50.1374 54.1631 48.0648 54.5062 45.4302 55.8925C40.3233 58.5797 34.8 58.2229 29.6474 57.0792C25.4593 56.1496 20.8656 54.0806 18.4006 50.771C15.9355 47.4613 14.4884 39.6017 14.4884 39.6017L17.5935 25.2335L30.698 16.6382L48.0872 15.2561L48.1526 12.8957C50.7777 14.7021 53.0668 16.9699 54.9085 19.5809H59.0973C54.4445 8.81476 43.8152 1.28772 31.4435 1.28772Z" fill="url(#paint2_linear_67_382)"/>
<path d="M42.7571 10.4149C36.9156 10.445 33.5138 11.129 27.4523 13.7434C19.7625 17.3573 12.0417 24.124 11.9982 35.1838C11.9476 48.0729 22.3434 58.5201 35.102 58.5201C41.6949 58.5201 48.7944 56.0871 53.003 51.6124C48.4737 55.4439 41.0091 56.6576 37.4848 56.6583C26.4746 56.6583 17.4744 48.3837 17.4744 37.2608C17.4744 30.2331 20.8843 25.0557 26.44 21.7006C28.3762 20.5314 32.4877 19.2015 38.1917 20.0701C41.0844 20.5106 43.4537 21.141 47.1073 22.3179C51.3477 23.6838 53.7097 25.5919 56.9721 25.9711C60.6877 26.403 64.613 22.8659 61.7143 17.3641C61.7143 17.3641 61.1889 17.8938 60.7497 18.16C60.3105 18.4262 59.6973 18.0746 57.9405 17.4534C56.1838 16.8323 55.9192 16.119 53.4597 14.433C51.0002 12.747 51.0013 10.8858 43.7985 10.4421C43.4609 10.4213 43.1117 10.4113 42.7571 10.4149Z" fill="url(#paint3_linear_67_382)"/>
<path d="M52.7802 16.7214C54.0384 16.7214 55.0584 15.6909 55.0584 14.4198C55.0584 13.1487 54.0384 12.1183 52.7802 12.1183C51.5219 12.1183 50.502 13.1487 50.502 14.4198C50.502 15.6909 51.5219 16.7214 52.7802 16.7214Z" fill="#3F3F3F"/>
<path d="M61.2074 17.5214C61.8596 17.5214 62.3884 16.857 62.3884 16.0373C62.3884 15.2177 61.8596 14.5532 61.2074 14.5532C60.5551 14.5532 60.0264 15.2177 60.0264 16.0373C60.0264 16.857 60.5551 17.5214 61.2074 17.5214Z" fill="#3F3F3F"/>
<path d="M22.6618 16.1549C21.1774 16.5201 17.56 17.4076 15.4108 20.3542C13.3467 23.1842 13.5143 26.4837 13.4683 27.3624C14.066 26.3903 15.7024 26.5282 16.8306 26.7045C19.4907 27.1202 22.2185 27.8356 23.9239 30.6033C24.0677 30.8126 24.1698 31.0544 24.3299 31.2524C25.1186 32.2273 25.9709 32.4774 26.8296 32.5172C28.6645 32.5712 29.5309 31.1875 29.6126 29.3269C29.615 29.1809 29.6132 29.2509 29.603 29.1231C29.5424 27.8275 27.5737 22.8851 24.3265 22.733C24.2903 22.7318 24.2536 22.7321 24.2177 22.7298C22.4165 22.6186 21.0165 21.0686 21.069 19.2185C21.2498 18.02 21.8037 17.0721 22.8906 16.3029L22.6618 16.1549Z" fill="url(#paint4_linear_67_382)"/>
<path d="M60.6084 18.2189C60.6084 18.2189 60.3126 18.7352 59.6748 19.0447C59.4129 19.1718 58.9529 18.853 58.5212 19.2961C57.6046 21.1549 59.8438 22.7068 60.8873 22.6628C61.9307 22.6189 62.7539 21.5568 62.7105 20.6344C62.667 19.2069 60.6084 18.2189 60.6084 18.2189Z" fill="#3F3F3F"/>
<path d="M31.4435 1.28772C14.7849 1.28772 1.28027 14.9306 1.28027 31.7596C1.28027 32.0225 1.28519 32.2822 1.29184 32.5438C1.7108 16.0837 15.0492 2.87168 31.4435 2.87168C36.0361 2.87168 40.3908 3.90881 44.2866 5.76396C44.4936 5.31222 44.9763 4.36872 45.4395 4.33529C46.0482 4.29137 46.3932 4.68804 46.7845 5.12727C47.1758 5.5665 47.9605 6.22595 47.9605 6.22595C47.9605 6.22595 51.5234 4.99649 55.5234 7.19263C59.5233 9.38877 60.0901 10.0462 60.8727 11.5835C61.1984 12.2232 61.3279 13.2661 61.3685 14.2661C61.4108 13.0019 61.386 11.0078 60.8727 9.9995C60.0901 8.46221 59.5233 7.80481 55.5234 5.60867C51.5234 3.41254 47.9605 4.64199 47.9605 4.64199C47.9605 4.64199 47.1758 3.98254 46.7845 3.54331C46.3932 3.10409 46.0482 2.70741 45.4395 2.75133C44.9763 2.78476 44.4936 3.72826 44.2866 4.18C40.3908 2.32485 36.0361 1.28772 31.4435 1.28772Z" fill="white" fill-opacity="0.156863"/>
<defs>
<radialGradient id="paint0_radial_67_382" cx="0" cy="0" r="1" gradientUnits="userSpaceOnUse" gradientTransform="translate(32.0963 33.8073) rotate(0.651362) scale(28.6194 32.1623)">
<stop stop-color="#FFBA00"/>
<stop offset="1" stop-color="#FF7F02"/>
</radialGradient>
<linearGradient id="paint1_linear_67_382" x1="22.0636" y1="12.7942" x2="22.0636" y2="58.0778" gradientUnits="userSpaceOnUse">
<stop stop-color="#794D3B"/>
<stop offset="1" stop-color="#5E3C2E"/>
</linearGradient>
<linearGradient id="paint2_linear_67_382" x1="22.0634" y1="12.7942" x2="22.0634" y2="58.0778" gradientUnits="userSpaceOnUse">
<stop stop-color="#794D3B"/>
<stop offset="1" stop-color="#5E3C2E"/>
</linearGradient>
<linearGradient id="paint3_linear_67_382" x1="32.8989" y1="35.6581" x2="32.8989" y2="16.2542" gradientUnits="userSpaceOnUse">
<stop stop-color="#E5DFDD"/>
<stop offset="1" stop-color="white"/>
</linearGradient>
<linearGradient id="paint4_linear_67_382" x1="22.0636" y1="12.7942" x2="22.0636" y2="58.0778" gradientUnits="userSpaceOnUse">
<stop stop-color="#794D3B"/>
<stop offset="1" stop-color="#5E3C2E"/>
</linearGradient>
</defs>
</svg>
